# xmcd CD database file
#
# Track frame offsets:
#	150
#	17246
#	39955
#	84048
#	102972
#	127400
#	147268
#	167208
#	188024
#
# Disc length: 2921 seconds
#
# Revision: 0
# Processed by: cddbd v1.5.2PL0 Copyright (c) Steve Scherf et al.
# Submitted via: CDex 1.51
#
DISCID=710b6709
DTITLE=Bemsha Bounds - Room Full Of Swing
DYEAR=2007
DGENRE=Jazz
TTITLE0=Pool Up
TTITLE1=Fool's Trek
TTITLE2=Thru the Mirror
TTITLE3=Just for hugh
TTITLE4=Better life
TTITLE5=Arms and the Man
TTITLE6=Projects
TTITLE7=John G.T.
TTITLE8=Gentle Breeze
EXTD=YEAR: 2007
EXTT0=
EXTT1=
EXTT2=
EXTT3=
EXTT4=
EXTT5=
EXTT6=
EXTT7=
EXTT8=
PLAYORDER=
